<svg width="408" height="785" viewBox="0 0 408 785" fill="none" xmlns="http://www.w3.org/2000/svg">
<path d="M406.51 331.478C359.279 326.592 254.066 307.048 211.069 267.96C196.411 251.673 158.3 228.871 123.12 267.96C85.6604 300.533 12.6956 394.997 20.5132 512.262C2.59803 404.769 -9.77941 193.692 84.0326 209.327C67.7447 204.441 36.1463 181.966 40.0551 131.151C41.6851 136.037 52.7626 149.718 84.0326 165.353C79.1455 132.78 78.1662 57.8604 113.346 18.7721C114.974 43.2023 124.095 96.9487 147.548 116.493C154.063 87.1767 167.092 24.6353 167.092 9C175.236 43.2023 206.18 106.721 264.813 87.1767C297.362 65.256 348.55 40.4094 406.51 28.482" stroke="black" stroke-width="14.6581"/>
<path fill-rule="evenodd" clip-rule="evenodd" d="M406.509 587.39C393.479 587.39 367.42 605.957 367.42 680.225C359.277 711.17 326.377 775.014 259.927 782.832H147.548C128.004 776.317 85.9843 751.561 74.2578 704.655C74.2578 680.225 67.4173 630.387 40.0555 626.478H35.1694V553.188C44.9415 546.673 75.235 533.643 118.232 533.643C170.35 522.243 290.221 509.213 352.762 548.302L357.648 553.188H406.509V587.39ZM279.471 758.401C306.833 754.492 329.961 720.942 338.104 704.655C345.922 681.202 347.876 626.478 347.876 602.048C343.967 555.142 300.644 543.415 279.471 543.415H162.207C115.301 547.324 90.5446 584.132 84.0298 602.048V660.68L93.8019 704.655C101.62 735.926 136.148 760.03 152.434 768.173H269.699L279.471 758.401Z" fill="black" stroke="black" stroke-width="2.44302"/>
</svg>
