<svg width="427" height="792" viewBox="0 0 427 792" fill="none" xmlns="http://www.w3.org/2000/svg">
<path d="M426 339C378 339 262.066 314.048 219.069 274.96C204.411 258.673 166.3 235.871 131.12 274.96C93.6604 307.533 20.6956 401.997 28.5132 519.262C10.598 411.769 -1.77941 200.692 92.0326 216.327C75.7447 211.441 44.1463 188.966 48.0551 138.151C49.6851 143.037 60.7626 156.718 92.0326 172.353C87.1455 139.78 86.1662 64.8604 121.346 25.7721C122.974 50.2023 132.095 103.949 155.548 123.493C162.063 94.1767 175.092 31.6353 175.092 16C183.236 50.2023 214.18 113.721 272.813 94.1767C305.362 72.256 367 33.5 426 33.5" stroke="#2DD4BF" stroke-width="14.6581"/>
<path fill-rule="evenodd" clip-rule="evenodd" d="M424.5 593.5C411.471 593.5 375.421 612.957 375.421 687.225C367.277 718.17 334.378 782.014 267.928 789.832H155.549C136.005 783.317 93.9848 758.561 82.2583 711.655C82.2583 687.225 75.4178 637.387 48.056 633.478H43.1699V560.188C52.942 553.673 83.2355 540.643 126.233 540.643C178.35 529.243 298.221 516.213 360.763 555.302L365.649 560.188H424.5V593.5ZM287.472 765.401C314.834 761.492 337.961 727.942 346.104 711.655C353.922 688.202 355.877 633.478 355.877 609.048C351.968 562.142 308.645 550.415 287.472 550.415H170.207C123.301 554.324 98.5451 591.132 92.0303 609.048V667.68L101.802 711.655C109.62 742.926 144.148 767.03 160.435 775.173H277.7L287.472 765.401Z" fill="#2DD4BF" stroke="#2DD4BF" stroke-width="2.44302"/>
<path d="M426 333.5C379 333.5 254.066 307.048 211.069 267.96C196.411 251.673 158.3 228.871 123.12 267.96C85.6604 300.533 12.6956 394.997 20.5132 512.262C2.59803 404.769 -9.77941 193.692 84.0326 209.327C67.7447 204.441 36.1463 181.966 40.0551 131.151C41.6851 136.037 52.7626 149.718 84.0326 165.353C79.1455 132.78 78.1662 57.8604 113.346 18.7721C114.974 43.2023 124.095 96.9487 147.548 116.493C154.063 87.1767 167.092 24.6353 167.092 9C175.236 43.2023 206.18 106.721 264.813 87.1767C297.362 65.256 369.5 26.5 426 26.5" stroke="black" stroke-width="14.6581"/>
<path fill-rule="evenodd" clip-rule="evenodd" d="M425 588.5C411.971 588.5 367.421 605.957 367.421 680.225C359.277 711.17 326.378 775.014 259.928 782.832H147.549C128.005 776.317 85.9848 751.561 74.2583 704.655C74.2583 680.225 67.4178 630.387 40.056 626.478H35.1699V553.188C44.942 546.673 75.2355 533.643 118.233 533.643C170.35 522.243 290.221 509.213 352.763 548.302L357.649 553.188H425V571.5V588.5ZM279.472 758.401C306.834 754.492 329.961 720.942 338.104 704.655C345.922 681.202 347.877 626.478 347.877 602.048C343.968 555.142 300.645 543.415 279.472 543.415H162.207C115.301 547.324 90.5451 584.132 84.0303 602.048V660.68L93.8024 704.655C101.62 735.926 136.148 760.03 152.435 768.173H269.7L279.472 758.401Z" fill="black" stroke="black" stroke-width="2.44302"/>
</svg>
